# xmcd CD database file
#
# Track frame offsets:
#	150
#	21190
#	38187
#	59995
#	84545
#	101260
#	120077
#	135197
#	156365
#	177047
#	205002
#	219152
#	233960
#	245650
#	262437
#	283717
#
# Disc length: 4138 seconds
#
# Revision: 0
# Processed by: cddbd v1.5.2PL0 Copyright (c) Steve Scherf et al.
# Submitted via: CDex 1.91
#
DISCID=df102810
DTITLE=Bill Allred's Classic Jazz Band - Live "N" Kickin'
DYEAR=1992
DGENRE=Jazz
TTITLE0=Wolverine Blues
TTITLE1=It Don't Mean A Thing If It Ain't Got That Swing
TTITLE2=Up A Lazy River
TTITLE3=Riverboat Shuffle
TTITLE4=Lazy Mood
TTITLE5=Ole Miss
TTITLE6=Flying Home
TTITLE7=Maryland My Maryland
TTITLE8=Running Wild
TTITLE9=Comes Love
TTITLE10=Dippermouth Blues
TTITLE11=Bennie's From Heaven
TTITLE12=They Made It Twice As Nice As Paradise And They Called It Dixieland
TTITLE13=Blue Again
TTITLE14=Come Back Sweet Papa
TTITLE15=Joe Avery Blues
EXTD=YEAR: 1992
EXTT0=
EXTT1=
EXTT2=
EXTT3=
EXTT4=
EXTT5=
EXTT6=
EXTT7=
EXTT8=
EXTT9=
EXTT10=
EXTT11=
EXTT12=
EXTT13=
EXTT14=
EXTT15=
PLAYORDER=
